<?xml version="1.0" encoding="utf-8"?>
<!-- Generator: Adobe Illustrator 21.0.2, SVG Export Plug-In . SVG Version: 6.00 Build 0)  -->
<svg version="1.1" id="Layer_1" xmlns="http://www.w3.org/2000/svg" xmlns:xlink="http://www.w3.org/1999/xlink" x="0px" y="0px"
	 viewBox="0 0 1030 261" style="enable-background:new 0 0 1030 261;" xml:space="preserve">
<style type="text/css">
	.st0{fill:#4D75A0;}
	.st1{fill:#EDE947;}
	.st2{fill:#8DC63F;}
	.st3{fill-rule:evenodd;clip-rule:evenodd;fill:#BF2E29;}
	.st4{fill:none;stroke:#FFFFFF;stroke-width:10;stroke-linecap:round;stroke-miterlimit:10;}
	.st5{fill:#1C3C69;}
	.st6{display:none;}
	.st7{display:inline;fill-rule:evenodd;clip-rule:evenodd;fill:#BE2B34;}
	.st8{display:inline;fill:#FFFFFF;}
	.st9{display:inline;fill-rule:evenodd;clip-rule:evenodd;fill:#EF539C;}
</style>
<g>
	<g>
		<polygon class="st0" points="86,86 96,86 125,86 125,0 0,0 0,125 86,125 86,96 		"/>
		<polygon class="st1" points="86,135 0,135 0,260 86,174 86,164 		"/>
		<polygon class="st2" points="174,86 260,0 135,0 135,86 164,86 		"/>
		<g>
			<polygon class="st3" points="96,96 96,164 164,96 			"/>
		</g>
	</g>
	<g>
		<path class="st5" d="M231.3,169v-64.1h25.4c6.3,0,11.5,1.8,15.6,5.3c4.1,3.5,6.2,8.5,6.2,14.8c0,4.1-1.1,7.8-3.2,11.3
			c-2.2,3.4-5.3,5.9-9.4,7.3l15.9,25.4h-13l-15-24h-10.3v24H231.3z M243.3,134.9h12c3.5,0,6.3-0.9,8.4-2.6c2.1-1.7,3.1-4.2,3.1-7.4
			c0-6.7-3.9-10-11.7-10h-11.8V134.9z"/>
		<path class="st5" d="M315.9,170c-7.7,0-13.8-2-18.3-5.9c-4.5-4-6.8-9.7-6.8-17.2v-42h12v40.6c0,4.2,1.1,7.5,3.2,10
			c2.2,2.5,5.5,3.7,9.9,3.7c8.8,0,13.1-4.6,13.1-13.8v-40.6h12v41.1c0,7.6-2.3,13.4-6.8,17.7C329.6,167.8,323.5,170,315.9,170z"/>
		<path class="st5" d="M354.9,169v-64.1h27.5c6.3,0,11.2,1.4,14.6,4.2c3.4,2.8,5.2,6.9,5.2,12.4c0,6.2-3,10.8-9.1,13.6v0.1
			c3.6,1,6.3,2.8,8.2,5.7c1.9,2.8,2.8,6.1,2.8,9.8c0,5.8-2,10.3-5.9,13.5c-3.9,3.3-8.7,4.9-14.3,4.9H354.9z M366.9,131.2H381
			c3,0,5.3-0.7,7-2.2c1.7-1.4,2.5-3.5,2.5-6.1c0-5.3-3.4-7.9-10.1-7.9h-13.6V131.2z M366.9,158.8h15c3.2,0,5.8-0.8,7.6-2.3
			c1.9-1.6,2.8-3.8,2.8-6.7c0-5.7-3.4-8.5-10.3-8.5h-15.1V158.8z"/>
		<path class="st5" d="M232,258.9v-64.2h22.8c6.2,0,11.3,1.7,15.2,5.1c3.9,3.4,5.8,8.1,5.8,14c0,4.6-1.3,8.6-4,12
			c-2.7,3.4-6.6,5.6-11.6,6.5l18.6,26.5h-8.1L252.5,233h-13.2v25.9H232z M239.3,227h13.9c10.3,0,15.4-4.4,15.4-13.2
			c0-4.3-1.4-7.6-4.1-9.7c-2.8-2.2-6.6-3.2-11.4-3.2h-13.7V227z"/>
		<path class="st5" d="M288.2,258.9v-64.2h41.2v6.5h-33.9v21.4H324v6.4h-28.5v23.5h34.1v6.5H288.2z"/>
		<path class="st5" d="M360.7,260c-6,0-11.1-1.3-15.4-4c-4.3-2.7-7.2-6.5-8.6-11.4l6.7-2.4c1.3,3.6,3.4,6.4,6.5,8.4
			c3.1,2,6.8,3,11.2,3c4.4,0,8-1,10.9-3.1c2.9-2,4.4-4.9,4.4-8.5c0-3.2-0.9-5.6-2.6-7.3c-1.7-1.7-4.2-3.1-7.3-4.1l-12.1-3.4
			c-4.7-1.3-8.2-3.3-10.6-5.8c-2.4-2.6-3.6-6.1-3.6-10.5c0-5.2,1.9-9.4,5.8-12.5c3.9-3.1,8.8-4.7,14.8-4.7c5.2,0,9.6,1,13.4,3
			c3.8,2,6.5,5.1,8.1,9.1l-6.3,2.5c-2.9-5.7-8-8.5-15.3-8.5c-3.6,0-6.7,0.9-9.4,2.7c-2.6,1.8-4,4.4-4,7.8c0,5.1,3.5,8.7,10.6,10.8
			l12.2,3.4c8.9,2.5,13.3,8.1,13.3,16.9c0,5.5-2.1,10-6.3,13.4C373,258.3,367.5,260,360.7,260z"/>
		<path class="st5" d="M393.3,258.9v-64.2h41.2v6.5h-33.9v21.4h28.5v6.4h-28.5v23.5h34.1v6.5H393.3z"/>
		<path class="st5" d="M441,258.9l24-64.3h6.7l23.7,64.3h-7.6l-6.6-18.6h-26.2l-6.7,18.6H441z M457.1,234.2h22l-10.9-30.8h-0.1
			L457.1,234.2z"/>
		<path class="st5" d="M505.7,258.9v-64.2h22.8c6.2,0,11.3,1.7,15.2,5.1c3.9,3.4,5.8,8.1,5.8,14c0,4.6-1.3,8.6-4,12
			c-2.7,3.4-6.6,5.6-11.6,6.5l18.6,26.5h-8.1L526.2,233H513v25.9H505.7z M513,227h13.9c10.3,0,15.4-4.4,15.4-13.2
			c0-4.3-1.4-7.6-4.1-9.7c-2.8-2.2-6.6-3.2-11.4-3.2H513V227z"/>
		<path class="st5" d="M585,260.1c-7.1,0-13-1.9-17.6-5.7c-4.6-3.8-6.9-9.1-6.9-15.8v-22.2c0-6.8,2.3-12.2,6.9-16.4
			c4.6-4.2,10.4-6.2,17.5-6.2c6.5,0,12,1.8,16.3,5.3c4.3,3.5,6.5,8.2,6.5,14v3.1h-6.9v-2.2c0-4.3-1.5-7.6-4.5-10
			c-3-2.4-6.9-3.6-11.7-3.6c-4.9,0-8.9,1.5-12.1,4.4c-3.2,2.9-4.8,6.8-4.8,11.7v21.5c0,4.8,1.6,8.6,4.9,11.5
			c3.2,2.9,7.4,4.3,12.5,4.3c4.7,0,8.5-1.2,11.4-3.7c2.9-2.5,4.3-5.8,4.3-10.1v-1.3h6.9v2.3c0,5.9-2.1,10.6-6.4,14.1
			C597,258.4,591.5,260.1,585,260.1z"/>
		<path class="st5" d="M618.2,258.9v-64.1h7.3v27.8H658v-27.8h7.3v64.1H658V229h-32.5v29.9H618.2z"/>
		<path class="st5" d="M720.7,260c-6,0-11.1-1.3-15.4-4c-4.3-2.7-7.2-6.5-8.6-11.4l6.7-2.4c1.3,3.6,3.4,6.4,6.5,8.4
			c3.1,2,6.8,3,11.2,3c4.4,0,8-1,10.9-3.1c2.9-2,4.4-4.9,4.4-8.5c0-3.2-0.9-5.6-2.6-7.3c-1.7-1.7-4.2-3.1-7.3-4.1l-12.1-3.4
			c-4.7-1.3-8.2-3.3-10.6-5.8c-2.4-2.6-3.6-6.1-3.6-10.5c0-5.2,1.9-9.4,5.8-12.5c3.9-3.1,8.8-4.7,14.8-4.7c5.2,0,9.6,1,13.4,3
			c3.8,2,6.5,5.1,8.1,9.1l-6.3,2.5c-2.9-5.7-8-8.5-15.3-8.5c-3.6,0-6.7,0.9-9.4,2.7c-2.6,1.8-4,4.4-4,7.8c0,5.1,3.5,8.7,10.6,10.8
			l12.2,3.4c8.9,2.5,13.3,8.1,13.3,16.9c0,5.5-2.1,10-6.3,13.4C733,258.3,727.5,260,720.7,260z"/>
		<path class="st5" d="M776.3,260.1c-7.1,0-13-1.9-17.6-5.7c-4.6-3.8-6.9-9.1-6.9-15.8v-22.2c0-6.8,2.3-12.2,6.9-16.4
			c4.6-4.2,10.4-6.2,17.5-6.2c6.5,0,12,1.8,16.3,5.3c4.3,3.5,6.5,8.2,6.5,14v3.1H792v-2.2c0-4.3-1.5-7.6-4.5-10
			c-3-2.4-6.9-3.6-11.7-3.6c-4.9,0-8.9,1.5-12.1,4.4c-3.2,2.9-4.8,6.8-4.8,11.7v21.5c0,4.8,1.6,8.6,4.9,11.5
			c3.2,2.9,7.4,4.3,12.5,4.3c4.7,0,8.5-1.2,11.4-3.7c2.9-2.5,4.3-5.8,4.3-10.1v-1.3h6.9v2.3c0,5.9-2.1,10.6-6.4,14.1
			C788.3,258.4,782.9,260.1,776.3,260.1z"/>
		<path class="st5" d="M809.6,258.9v-64.1h7.3v27.8h32.5v-27.8h7.3v64.1h-7.3V229h-32.5v29.9H809.6z"/>
		<path class="st5" d="M892.6,260.1c-7,0-12.9-1.9-17.5-5.7c-4.7-3.8-7-9.1-7-15.8v-21.9c0-7.1,2.4-12.7,7.1-16.9
			c4.7-4.2,10.5-6.3,17.3-6.3c7.1,0,12.9,2,17.5,6c4.6,4,6.9,9.4,6.9,16.2v21.1c0,7-2.3,12.6-7,16.9
			C905.2,258,899.4,260.1,892.6,260.1z M892.6,253.6c4.9,0,8.9-1.4,12.2-4.3c3.3-2.9,4.9-6.8,4.9-11.9v-21.9c0-4.8-1.6-8.6-4.8-11.3
			c-3.2-2.8-7.5-4.1-12.7-4.1c-4.9,0-8.9,1.5-12.1,4.5c-3.2,3-4.8,7-4.8,12.2v21.1c0,4.9,1.6,8.7,4.9,11.6
			C883.3,252.2,887.5,253.6,892.6,253.6z"/>
		<path class="st5" d="M952.6,260.1c-7,0-12.9-1.9-17.5-5.7c-4.7-3.8-7-9.1-7-15.8v-21.9c0-7.1,2.4-12.7,7.1-16.9
			c4.7-4.2,10.5-6.3,17.3-6.3c7.1,0,12.9,2,17.5,6c4.6,4,6.9,9.4,6.9,16.2v21.1c0,7-2.3,12.6-7,16.9
			C965.2,258,959.4,260.1,952.6,260.1z M952.6,253.6c4.9,0,8.9-1.4,12.2-4.3c3.3-2.9,4.9-6.8,4.9-11.9v-21.9c0-4.8-1.6-8.6-4.8-11.3
			c-3.2-2.8-7.5-4.1-12.7-4.1c-4.9,0-8.9,1.5-12.1,4.5c-3.2,3-4.8,7-4.8,12.2v21.1c0,4.9,1.6,8.7,4.9,11.6
			C943.3,252.2,947.5,253.6,952.6,253.6z"/>
		<path class="st5" d="M989.6,258.9v-64.2h7.3v57.7h33.1v6.5H989.6z"/>
		<path class="st5" d="M231.3,169v-64.1h25.4c6.3,0,11.5,1.8,15.6,5.3c4.1,3.5,6.2,8.5,6.2,14.8c0,4.1-1.1,7.8-3.2,11.3
			c-2.2,3.4-5.3,5.9-9.4,7.3l15.9,25.4h-13l-15-24h-10.3v24H231.3z M243.3,134.9h12c3.5,0,6.3-0.9,8.4-2.6c2.1-1.7,3.1-4.2,3.1-7.4
			c0-6.7-3.9-10-11.7-10h-11.8V134.9z"/>
		<path class="st5" d="M315.9,170c-7.7,0-13.8-2-18.3-5.9c-4.5-4-6.8-9.7-6.8-17.2v-42h12v40.6c0,4.2,1.1,7.5,3.2,10
			c2.2,2.5,5.5,3.7,9.9,3.7c8.8,0,13.1-4.6,13.1-13.8v-40.6h12v41.1c0,7.6-2.3,13.4-6.8,17.7C329.6,167.8,323.5,170,315.9,170z"/>
		<path class="st5" d="M354.9,169v-64.1h27.5c6.3,0,11.2,1.4,14.6,4.2c3.4,2.8,5.2,6.9,5.2,12.4c0,6.2-3,10.8-9.1,13.6v0.1
			c3.6,1,6.3,2.8,8.2,5.7c1.9,2.8,2.8,6.1,2.8,9.8c0,5.8-2,10.3-5.9,13.5c-3.9,3.3-8.7,4.9-14.3,4.9H354.9z M366.9,131.2H381
			c3,0,5.3-0.7,7-2.2c1.7-1.4,2.5-3.5,2.5-6.1c0-5.3-3.4-7.9-10.1-7.9h-13.6V131.2z M366.9,158.8h15c3.2,0,5.8-0.8,7.6-2.3
			c1.9-1.6,2.8-3.8,2.8-6.7c0-5.7-3.4-8.5-10.3-8.5h-15.1V158.8z"/>
		<path class="st5" d="M232,258.9v-64.2h22.8c6.2,0,11.3,1.7,15.2,5.1c3.9,3.4,5.8,8.1,5.8,14c0,4.6-1.3,8.6-4,12
			c-2.7,3.4-6.6,5.6-11.6,6.5l18.6,26.5h-8.1L252.5,233h-13.2v25.9H232z M239.3,227h13.9c10.3,0,15.4-4.4,15.4-13.2
			c0-4.3-1.4-7.6-4.1-9.7c-2.8-2.2-6.6-3.2-11.4-3.2h-13.7V227z"/>
		<path class="st5" d="M288.2,258.9v-64.2h41.2v6.5h-33.9v21.4H324v6.4h-28.5v23.5h34.1v6.5H288.2z"/>
		<path class="st5" d="M360.7,260c-6,0-11.1-1.3-15.4-4c-4.3-2.7-7.2-6.5-8.6-11.4l6.7-2.4c1.3,3.6,3.4,6.4,6.5,8.4
			c3.1,2,6.8,3,11.2,3c4.4,0,8-1,10.9-3.1c2.9-2,4.4-4.9,4.4-8.5c0-3.2-0.9-5.6-2.6-7.3c-1.7-1.7-4.2-3.1-7.3-4.1l-12.1-3.4
			c-4.7-1.3-8.2-3.3-10.6-5.8c-2.4-2.6-3.6-6.1-3.6-10.5c0-5.2,1.9-9.4,5.8-12.5c3.9-3.1,8.8-4.7,14.8-4.7c5.2,0,9.6,1,13.4,3
			c3.8,2,6.5,5.1,8.1,9.1l-6.3,2.5c-2.9-5.7-8-8.5-15.3-8.5c-3.6,0-6.7,0.9-9.4,2.7c-2.6,1.8-4,4.4-4,7.8c0,5.1,3.5,8.7,10.6,10.8
			l12.2,3.4c8.9,2.5,13.3,8.1,13.3,16.9c0,5.5-2.1,10-6.3,13.4C373,258.3,367.5,260,360.7,260z"/>
		<path class="st5" d="M393.3,258.9v-64.2h41.2v6.5h-33.9v21.4h28.5v6.4h-28.5v23.5h34.1v6.5H393.3z"/>
		<path class="st5" d="M441,258.9l24-64.3h6.7l23.7,64.3h-7.6l-6.6-18.6h-26.2l-6.7,18.6H441z M457.1,234.2h22l-10.9-30.8h-0.1
			L457.1,234.2z"/>
		<path class="st5" d="M505.7,258.9v-64.2h22.8c6.2,0,11.3,1.7,15.2,5.1c3.9,3.4,5.8,8.1,5.8,14c0,4.6-1.3,8.6-4,12
			c-2.7,3.4-6.6,5.6-11.6,6.5l18.6,26.5h-8.1L526.2,233H513v25.9H505.7z M513,227h13.9c10.3,0,15.4-4.4,15.4-13.2
			c0-4.3-1.4-7.6-4.1-9.7c-2.8-2.2-6.6-3.2-11.4-3.2H513V227z"/>
		<path class="st5" d="M585,260.1c-7.1,0-13-1.9-17.6-5.7c-4.6-3.8-6.9-9.1-6.9-15.8v-22.2c0-6.8,2.3-12.2,6.9-16.4
			c4.6-4.2,10.4-6.2,17.5-6.2c6.5,0,12,1.8,16.3,5.3c4.3,3.5,6.5,8.2,6.5,14v3.1h-6.9v-2.2c0-4.3-1.5-7.6-4.5-10
			c-3-2.4-6.9-3.6-11.7-3.6c-4.9,0-8.9,1.5-12.1,4.4c-3.2,2.9-4.8,6.8-4.8,11.7v21.5c0,4.8,1.6,8.6,4.9,11.5
			c3.2,2.9,7.4,4.3,12.5,4.3c4.7,0,8.5-1.2,11.4-3.7c2.9-2.5,4.3-5.8,4.3-10.1v-1.3h6.9v2.3c0,5.9-2.1,10.6-6.4,14.1
			C597,258.4,591.5,260.1,585,260.1z"/>
		<path class="st5" d="M618.2,258.9v-64.1h7.3v27.8H658v-27.8h7.3v64.1H658V229h-32.5v29.9H618.2z"/>
		<path class="st5" d="M720.7,260c-6,0-11.1-1.3-15.4-4c-4.3-2.7-7.2-6.5-8.6-11.4l6.7-2.4c1.3,3.6,3.4,6.4,6.5,8.4
			c3.1,2,6.8,3,11.2,3c4.4,0,8-1,10.9-3.1c2.9-2,4.4-4.9,4.4-8.5c0-3.2-0.9-5.6-2.6-7.3c-1.7-1.7-4.2-3.1-7.3-4.1l-12.1-3.4
			c-4.7-1.3-8.2-3.3-10.6-5.8c-2.4-2.6-3.6-6.1-3.6-10.5c0-5.2,1.9-9.4,5.8-12.5c3.9-3.1,8.8-4.7,14.8-4.7c5.2,0,9.6,1,13.4,3
			c3.8,2,6.5,5.1,8.1,9.1l-6.3,2.5c-2.9-5.7-8-8.5-15.3-8.5c-3.6,0-6.7,0.9-9.4,2.7c-2.6,1.8-4,4.4-4,7.8c0,5.1,3.5,8.7,10.6,10.8
			l12.2,3.4c8.9,2.5,13.3,8.1,13.3,16.9c0,5.5-2.1,10-6.3,13.4C733,258.3,727.5,260,720.7,260z"/>
		<path class="st5" d="M776.3,260.1c-7.1,0-13-1.9-17.6-5.7c-4.6-3.8-6.9-9.1-6.9-15.8v-22.2c0-6.8,2.3-12.2,6.9-16.4
			c4.6-4.2,10.4-6.2,17.5-6.2c6.5,0,12,1.8,16.3,5.3c4.3,3.5,6.5,8.2,6.5,14v3.1H792v-2.2c0-4.3-1.5-7.6-4.5-10
			c-3-2.4-6.9-3.6-11.7-3.6c-4.9,0-8.9,1.5-12.1,4.4c-3.2,2.9-4.8,6.8-4.8,11.7v21.5c0,4.8,1.6,8.6,4.9,11.5
			c3.2,2.9,7.4,4.3,12.5,4.3c4.7,0,8.5-1.2,11.4-3.7c2.9-2.5,4.3-5.8,4.3-10.1v-1.3h6.9v2.3c0,5.9-2.1,10.6-6.4,14.1
			C788.3,258.4,782.9,260.1,776.3,260.1z"/>
		<path class="st5" d="M809.6,258.9v-64.1h7.3v27.8h32.5v-27.8h7.3v64.1h-7.3V229h-32.5v29.9H809.6z"/>
		<path class="st5" d="M892.6,260.1c-7,0-12.9-1.9-17.5-5.7c-4.7-3.8-7-9.1-7-15.8v-21.9c0-7.1,2.4-12.7,7.1-16.9
			c4.7-4.2,10.5-6.3,17.3-6.3c7.1,0,12.9,2,17.5,6c4.6,4,6.9,9.4,6.9,16.2v21.1c0,7-2.3,12.6-7,16.9
			C905.2,258,899.4,260.1,892.6,260.1z M892.6,253.6c4.9,0,8.9-1.4,12.2-4.3c3.3-2.9,4.9-6.8,4.9-11.9v-21.9c0-4.8-1.6-8.6-4.8-11.3
			c-3.2-2.8-7.5-4.1-12.7-4.1c-4.9,0-8.9,1.5-12.1,4.5c-3.2,3-4.8,7-4.8,12.2v21.1c0,4.9,1.6,8.7,4.9,11.6
			C883.3,252.2,887.5,253.6,892.6,253.6z"/>
		<path class="st5" d="M952.6,260.1c-7,0-12.9-1.9-17.5-5.7c-4.7-3.8-7-9.1-7-15.8v-21.9c0-7.1,2.4-12.7,7.1-16.9
			c4.7-4.2,10.5-6.3,17.3-6.3c7.1,0,12.9,2,17.5,6c4.6,4,6.9,9.4,6.9,16.2v21.1c0,7-2.3,12.6-7,16.9
			C965.2,258,959.4,260.1,952.6,260.1z M952.6,253.6c4.9,0,8.9-1.4,12.2-4.3c3.3-2.9,4.9-6.8,4.9-11.9v-21.9c0-4.8-1.6-8.6-4.8-11.3
			c-3.2-2.8-7.5-4.1-12.7-4.1c-4.9,0-8.9,1.5-12.1,4.5c-3.2,3-4.8,7-4.8,12.2v21.1c0,4.9,1.6,8.7,4.9,11.6
			C943.3,252.2,947.5,253.6,952.6,253.6z"/>
		<path class="st5" d="M989.6,258.9v-64.2h7.3v57.7h33.1v6.5H989.6z"/>
	</g>
</g>
</svg>
